<mxfile host="app.diagrams.net" modified="2022-11-09T11:02:26.759Z" agent="5.0 (Windows NT 10.0; Win64; x64) AppleWebKit/537.36 (KHTML, like Gecko) Chrome/106.0.0.0 Safari/537.36" etag="DuX7vOogaCoXMyhWn2-j" version="20.5.3" type="github">
  <diagram id="EIFr-oV-Iv8VRZFzJMfy" name="Page-1">
    <mxGraphModel dx="1718" dy="2124" grid="1" gridSize="10" guides="1" tooltips="1" connect="1" arrows="1" fold="1" page="1" pageScale="1" pageWidth="827" pageHeight="1169" math="0" shadow="0">
      <root>
        <mxCell id="0" />
        <mxCell id="1" parent="0" />
        <mxCell id="1pkbhJMiCkY7pZUYz45O-16" style="edgeStyle=orthogonalEdgeStyle;rounded=0;orthogonalLoop=1;jettySize=auto;html=1;exitX=1;exitY=0.5;exitDx=0;exitDy=0;entryX=0;entryY=0.5;entryDx=0;entryDy=0;" edge="1" parent="1" source="1pkbhJMiCkY7pZUYz45O-1" target="1pkbhJMiCkY7pZUYz45O-2">
          <mxGeometry relative="1" as="geometry" />
        </mxCell>
        <mxCell id="1pkbhJMiCkY7pZUYz45O-1" value="" style="ellipse;whiteSpace=wrap;html=1;aspect=fixed;" vertex="1" parent="1">
          <mxGeometry x="153" y="252" width="20" height="20" as="geometry" />
        </mxCell>
        <mxCell id="1pkbhJMiCkY7pZUYz45O-17" style="edgeStyle=orthogonalEdgeStyle;rounded=0;orthogonalLoop=1;jettySize=auto;html=1;exitX=1;exitY=0.5;exitDx=0;exitDy=0;entryX=0;entryY=0.5;entryDx=0;entryDy=0;" edge="1" parent="1" source="1pkbhJMiCkY7pZUYz45O-2" target="1pkbhJMiCkY7pZUYz45O-10">
          <mxGeometry relative="1" as="geometry" />
        </mxCell>
        <mxCell id="1pkbhJMiCkY7pZUYz45O-23" style="edgeStyle=orthogonalEdgeStyle;curved=1;rounded=0;orthogonalLoop=1;jettySize=auto;html=1;exitX=0.5;exitY=1;exitDx=0;exitDy=0;entryX=0.5;entryY=1;entryDx=0;entryDy=0;" edge="1" parent="1" source="1pkbhJMiCkY7pZUYz45O-2" target="1pkbhJMiCkY7pZUYz45O-9">
          <mxGeometry relative="1" as="geometry" />
        </mxCell>
        <mxCell id="1pkbhJMiCkY7pZUYz45O-2" value="" style="ellipse;whiteSpace=wrap;html=1;aspect=fixed;" vertex="1" parent="1">
          <mxGeometry x="213" y="252" width="20" height="20" as="geometry" />
        </mxCell>
        <mxCell id="1pkbhJMiCkY7pZUYz45O-51" style="edgeStyle=orthogonalEdgeStyle;rounded=0;orthogonalLoop=1;jettySize=auto;html=1;exitX=1;exitY=0.5;exitDx=0;exitDy=0;entryX=0;entryY=0.5;entryDx=0;entryDy=0;curved=1;" edge="1" parent="1" source="1pkbhJMiCkY7pZUYz45O-3" target="1pkbhJMiCkY7pZUYz45O-43">
          <mxGeometry relative="1" as="geometry" />
        </mxCell>
        <mxCell id="1pkbhJMiCkY7pZUYz45O-3" value="" style="ellipse;whiteSpace=wrap;html=1;aspect=fixed;" vertex="1" parent="1">
          <mxGeometry x="177" y="71" width="20" height="20" as="geometry" />
        </mxCell>
        <mxCell id="1pkbhJMiCkY7pZUYz45O-4" value="" style="ellipse;whiteSpace=wrap;html=1;aspect=fixed;" vertex="1" parent="1">
          <mxGeometry x="670" y="70" width="20" height="20" as="geometry" />
        </mxCell>
        <mxCell id="1pkbhJMiCkY7pZUYz45O-42" style="edgeStyle=none;rounded=0;orthogonalLoop=1;jettySize=auto;html=1;exitX=1;exitY=0.5;exitDx=0;exitDy=0;entryX=0;entryY=1;entryDx=0;entryDy=0;" edge="1" parent="1" source="1pkbhJMiCkY7pZUYz45O-5" target="1pkbhJMiCkY7pZUYz45O-4">
          <mxGeometry relative="1" as="geometry" />
        </mxCell>
        <mxCell id="1pkbhJMiCkY7pZUYz45O-5" value="" style="ellipse;whiteSpace=wrap;html=1;aspect=fixed;" vertex="1" parent="1">
          <mxGeometry x="600" y="100" width="20" height="20" as="geometry" />
        </mxCell>
        <mxCell id="1pkbhJMiCkY7pZUYz45O-40" style="edgeStyle=none;rounded=0;orthogonalLoop=1;jettySize=auto;html=1;exitX=1;exitY=0.5;exitDx=0;exitDy=0;entryX=0;entryY=0;entryDx=0;entryDy=0;" edge="1" parent="1" source="1pkbhJMiCkY7pZUYz45O-6" target="1pkbhJMiCkY7pZUYz45O-4">
          <mxGeometry relative="1" as="geometry" />
        </mxCell>
        <mxCell id="1pkbhJMiCkY7pZUYz45O-6" value="" style="ellipse;whiteSpace=wrap;html=1;aspect=fixed;" vertex="1" parent="1">
          <mxGeometry x="600" y="40" width="20" height="20" as="geometry" />
        </mxCell>
        <mxCell id="1pkbhJMiCkY7pZUYz45O-34" style="rounded=0;orthogonalLoop=1;jettySize=auto;html=1;exitX=1;exitY=0;exitDx=0;exitDy=0;entryX=0;entryY=0.5;entryDx=0;entryDy=0;" edge="1" parent="1" source="1pkbhJMiCkY7pZUYz45O-7" target="1pkbhJMiCkY7pZUYz45O-6">
          <mxGeometry relative="1" as="geometry" />
        </mxCell>
        <mxCell id="1pkbhJMiCkY7pZUYz45O-35" style="edgeStyle=none;rounded=0;orthogonalLoop=1;jettySize=auto;html=1;exitX=1;exitY=1;exitDx=0;exitDy=0;entryX=0;entryY=0.5;entryDx=0;entryDy=0;" edge="1" parent="1" source="1pkbhJMiCkY7pZUYz45O-7" target="1pkbhJMiCkY7pZUYz45O-5">
          <mxGeometry relative="1" as="geometry" />
        </mxCell>
        <mxCell id="1pkbhJMiCkY7pZUYz45O-78" style="edgeStyle=orthogonalEdgeStyle;curved=1;rounded=0;orthogonalLoop=1;jettySize=auto;html=1;exitX=1;exitY=0.5;exitDx=0;exitDy=0;entryX=0;entryY=0.5;entryDx=0;entryDy=0;" edge="1" parent="1" source="1pkbhJMiCkY7pZUYz45O-7" target="1pkbhJMiCkY7pZUYz45O-77">
          <mxGeometry relative="1" as="geometry" />
        </mxCell>
        <mxCell id="1pkbhJMiCkY7pZUYz45O-7" value="" style="ellipse;whiteSpace=wrap;html=1;aspect=fixed;" vertex="1" parent="1">
          <mxGeometry x="550" y="70" width="20" height="20" as="geometry" />
        </mxCell>
        <mxCell id="1pkbhJMiCkY7pZUYz45O-28" style="edgeStyle=orthogonalEdgeStyle;curved=1;rounded=0;orthogonalLoop=1;jettySize=auto;html=1;exitX=1;exitY=0.5;exitDx=0;exitDy=0;entryX=0;entryY=0.5;entryDx=0;entryDy=0;" edge="1" parent="1" source="1pkbhJMiCkY7pZUYz45O-8" target="1pkbhJMiCkY7pZUYz45O-7">
          <mxGeometry relative="1" as="geometry" />
        </mxCell>
        <mxCell id="1pkbhJMiCkY7pZUYz45O-8" value="" style="ellipse;whiteSpace=wrap;html=1;aspect=fixed;" vertex="1" parent="1">
          <mxGeometry x="490" y="70" width="20" height="20" as="geometry" />
        </mxCell>
        <mxCell id="1pkbhJMiCkY7pZUYz45O-9" value="" style="ellipse;whiteSpace=wrap;html=1;aspect=fixed;" vertex="1" parent="1">
          <mxGeometry x="333" y="252" width="20" height="20" as="geometry" />
        </mxCell>
        <mxCell id="1pkbhJMiCkY7pZUYz45O-18" style="edgeStyle=orthogonalEdgeStyle;rounded=0;orthogonalLoop=1;jettySize=auto;html=1;exitX=0.5;exitY=0;exitDx=0;exitDy=0;entryX=0.5;entryY=0;entryDx=0;entryDy=0;curved=1;" edge="1" parent="1" source="1pkbhJMiCkY7pZUYz45O-10" target="1pkbhJMiCkY7pZUYz45O-1">
          <mxGeometry relative="1" as="geometry" />
        </mxCell>
        <mxCell id="1pkbhJMiCkY7pZUYz45O-10" value="" style="ellipse;whiteSpace=wrap;html=1;aspect=fixed;" vertex="1" parent="1">
          <mxGeometry x="273" y="252" width="20" height="20" as="geometry" />
        </mxCell>
        <mxCell id="1pkbhJMiCkY7pZUYz45O-54" style="edgeStyle=orthogonalEdgeStyle;curved=1;rounded=0;orthogonalLoop=1;jettySize=auto;html=1;exitX=0.5;exitY=0;exitDx=0;exitDy=0;entryX=0.5;entryY=0;entryDx=0;entryDy=0;" edge="1" parent="1" source="1pkbhJMiCkY7pZUYz45O-3" target="1pkbhJMiCkY7pZUYz45O-47">
          <mxGeometry relative="1" as="geometry" />
        </mxCell>
        <mxCell id="1pkbhJMiCkY7pZUYz45O-75" style="edgeStyle=orthogonalEdgeStyle;curved=1;rounded=0;orthogonalLoop=1;jettySize=auto;html=1;exitX=1;exitY=0.5;exitDx=0;exitDy=0;entryX=0;entryY=0.5;entryDx=0;entryDy=0;" edge="1" parent="1" source="1pkbhJMiCkY7pZUYz45O-43" target="1pkbhJMiCkY7pZUYz45O-47">
          <mxGeometry relative="1" as="geometry" />
        </mxCell>
        <mxCell id="1pkbhJMiCkY7pZUYz45O-43" value="" style="ellipse;whiteSpace=wrap;html=1;aspect=fixed;" vertex="1" parent="1">
          <mxGeometry x="227" y="71" width="20" height="20" as="geometry" />
        </mxCell>
        <mxCell id="1pkbhJMiCkY7pZUYz45O-69" style="edgeStyle=orthogonalEdgeStyle;curved=1;rounded=0;orthogonalLoop=1;jettySize=auto;html=1;exitX=1;exitY=0.5;exitDx=0;exitDy=0;entryX=0;entryY=0.5;entryDx=0;entryDy=0;" edge="1" parent="1" source="1pkbhJMiCkY7pZUYz45O-44" target="1pkbhJMiCkY7pZUYz45O-60">
          <mxGeometry relative="1" as="geometry" />
        </mxCell>
        <mxCell id="1pkbhJMiCkY7pZUYz45O-44" value="" style="ellipse;whiteSpace=wrap;html=1;aspect=fixed;" vertex="1" parent="1">
          <mxGeometry x="600" y="250" width="20" height="20" as="geometry" />
        </mxCell>
        <mxCell id="1pkbhJMiCkY7pZUYz45O-67" style="edgeStyle=orthogonalEdgeStyle;curved=1;rounded=0;orthogonalLoop=1;jettySize=auto;html=1;exitX=0.5;exitY=1;exitDx=0;exitDy=0;entryX=0.5;entryY=1;entryDx=0;entryDy=0;" edge="1" parent="1" source="1pkbhJMiCkY7pZUYz45O-45" target="1pkbhJMiCkY7pZUYz45O-46">
          <mxGeometry relative="1" as="geometry" />
        </mxCell>
        <mxCell id="1pkbhJMiCkY7pZUYz45O-45" value="" style="ellipse;whiteSpace=wrap;html=1;aspect=fixed;" vertex="1" parent="1">
          <mxGeometry x="550" y="250" width="20" height="20" as="geometry" />
        </mxCell>
        <mxCell id="1pkbhJMiCkY7pZUYz45O-65" style="edgeStyle=orthogonalEdgeStyle;curved=1;rounded=0;orthogonalLoop=1;jettySize=auto;html=1;exitX=1;exitY=0.5;exitDx=0;exitDy=0;entryX=0;entryY=0.5;entryDx=0;entryDy=0;" edge="1" parent="1" source="1pkbhJMiCkY7pZUYz45O-46" target="1pkbhJMiCkY7pZUYz45O-45">
          <mxGeometry relative="1" as="geometry" />
        </mxCell>
        <mxCell id="1pkbhJMiCkY7pZUYz45O-68" style="edgeStyle=orthogonalEdgeStyle;curved=1;rounded=0;orthogonalLoop=1;jettySize=auto;html=1;exitX=0.5;exitY=0;exitDx=0;exitDy=0;entryX=0.5;entryY=0;entryDx=0;entryDy=0;" edge="1" parent="1" source="1pkbhJMiCkY7pZUYz45O-46" target="1pkbhJMiCkY7pZUYz45O-44">
          <mxGeometry relative="1" as="geometry" />
        </mxCell>
        <mxCell id="1pkbhJMiCkY7pZUYz45O-46" value="" style="ellipse;whiteSpace=wrap;html=1;aspect=fixed;" vertex="1" parent="1">
          <mxGeometry x="490" y="250" width="20" height="20" as="geometry" />
        </mxCell>
        <mxCell id="1pkbhJMiCkY7pZUYz45O-55" style="edgeStyle=orthogonalEdgeStyle;curved=1;rounded=0;orthogonalLoop=1;jettySize=auto;html=1;exitX=0.5;exitY=1;exitDx=0;exitDy=0;entryX=0.5;entryY=1;entryDx=0;entryDy=0;" edge="1" parent="1" source="1pkbhJMiCkY7pZUYz45O-43" target="1pkbhJMiCkY7pZUYz45O-3">
          <mxGeometry relative="1" as="geometry" />
        </mxCell>
        <mxCell id="1pkbhJMiCkY7pZUYz45O-47" value="" style="ellipse;whiteSpace=wrap;html=1;aspect=fixed;" vertex="1" parent="1">
          <mxGeometry x="277" y="71" width="20" height="20" as="geometry" />
        </mxCell>
        <mxCell id="1pkbhJMiCkY7pZUYz45O-60" value="" style="ellipse;whiteSpace=wrap;html=1;aspect=fixed;" vertex="1" parent="1">
          <mxGeometry x="670" y="250" width="20" height="20" as="geometry" />
        </mxCell>
        <mxCell id="1pkbhJMiCkY7pZUYz45O-71" value="（1）" style="whiteSpace=wrap;html=1;strokeColor=none;fillColor=none;" vertex="1" parent="1">
          <mxGeometry x="103" y="-10" width="120" height="60" as="geometry" />
        </mxCell>
        <mxCell id="1pkbhJMiCkY7pZUYz45O-72" value="（2）" style="whiteSpace=wrap;html=1;strokeColor=none;fillColor=none;" vertex="1" parent="1">
          <mxGeometry x="420" y="-10" width="120" height="60" as="geometry" />
        </mxCell>
        <mxCell id="1pkbhJMiCkY7pZUYz45O-73" value="（3）" style="whiteSpace=wrap;html=1;strokeColor=none;fillColor=none;" vertex="1" parent="1">
          <mxGeometry x="103" y="170" width="120" height="60" as="geometry" />
        </mxCell>
        <mxCell id="1pkbhJMiCkY7pZUYz45O-74" value="（4）" style="whiteSpace=wrap;html=1;strokeColor=none;fillColor=none;" vertex="1" parent="1">
          <mxGeometry x="420" y="170" width="120" height="60" as="geometry" />
        </mxCell>
        <mxCell id="1pkbhJMiCkY7pZUYz45O-79" style="edgeStyle=orthogonalEdgeStyle;curved=1;rounded=0;orthogonalLoop=1;jettySize=auto;html=1;exitX=1;exitY=0.5;exitDx=0;exitDy=0;entryX=0;entryY=0.5;entryDx=0;entryDy=0;" edge="1" parent="1" source="1pkbhJMiCkY7pZUYz45O-77" target="1pkbhJMiCkY7pZUYz45O-4">
          <mxGeometry relative="1" as="geometry" />
        </mxCell>
        <mxCell id="1pkbhJMiCkY7pZUYz45O-77" value="" style="ellipse;whiteSpace=wrap;html=1;aspect=fixed;" vertex="1" parent="1">
          <mxGeometry x="600" y="70" width="20" height="20" as="geometry" />
        </mxCell>
      </root>
    </mxGraphModel>
  </diagram>
</mxfile>
